# xmcd
#
# Track frame offsets:
# 150
# 10570
# 21730
# 30207
# 41999
# 53988
# 63160
# 73294
#
# Disc length: 1107 seconds
#
#
# Revision: 0
# Processed by: cddbd v1.5.1PL0 Copyright (c) Steve Scherf et al.
# Submitted via: FreeRIP 2.942 
#
DISCID=69045108
DTITLE=Johnny Cash - The Collection Disc 2
DYEAR=1900
DGENRE=Folk
TTITLE0=You Win Again
TTITLE1=Don't Make Me Go
TTITLE2=I forgot to Remember to Forget
TTITLE3=Thanks Alot
TTITLE4=You're the Nearest Thing to Heaven
TTITLE5=Blue Train
TTITLE6=Stright A's In Love
TTITLE7=Born To Lose
EXTD=
EXTT0=
EXTT1=
EXTT2=
EXTT3=
EXTT4=
EXTT5=
EXTT6=
EXTT7=
PLAYORDER=
